MutatorSansInstance_0-500.ufo
<glyph name="comma" format="2">
  <advance width="231"/>
  <unicode hex="002C"/>
  <outline>
    <contour>
      <point x="141" y="0" type="line"/>
      <point x="141" y="170" type="line"/>
      <point x="91" y="170" type="line"/>
      <point x="91" y="0" type="line"/>
      <point x="123" y="-8" type="line"/>
      <point x="112" y="12" type="line"/>
      <point x="90" y="-93" type="line"/>
      <point x="102" y="-95" type="line"/>
    </contour>
  </outline>
</glyph>
<glyph name="A" format="2">
  <advance width="800"/>
  <unicode hex="0041"/>
  <outline>
    <contour>
      <point x="40" y="0" type="line"/>
      <point x="84" y="0" type="line"/>
      <point x="406" y="700" type="line"/>
      <point x="368" y="700" type="line"/>
    </contour>
    <contour>
      <point x="165" y="194" type="line"/>
      <point x="640" y="194" type="line"/>
      <point x="640" y="227" type="line"/>
      <point x="165" y="227" type="line"/>
    </contour>
    <contour>
      <point x="714" y="0" type="line"/>
      <point x="763" y="0" type="line"/>
      <point x="436" y="700" type="line"/>
      <point x="392" y="700" type="line"/>
    </contour>
    <contour>
      <point x="372" y="662" type="line"/>
      <point x="432" y="662" type="line"/>
      <point x="432" y="700" type="line"/>
      <point x="372" y="700" type="line"/>
    </contour>
  </outline>
</glyph>
<glyph name="B" format="2">
  <advance width="808"/>
  <unicode hex="0042"/>
  <outline>
    <contour>
      <point x="90" y="0" type="line"/>
      <point x="130" y="0" type="line"/>
      <point x="130" y="700" type="line"/>
      <point x="90" y="700" type="line"/>
    </contour>
    <contour>
      <point x="110" y="333" type="line"/>
      <point x="545" y="333" type="line" smooth="yes"/>
      <point x="657" y="333"/>
      <point x="709" y="269"/>
      <point x="709" y="183" type="curve" smooth="yes"/>
      <point x="709" y="95"/>
      <point x="656" y="36"/>
      <point x="540" y="36" type="curve" smooth="yes"/>
      <point x="110" y="36" type="line"/>
      <point x="110" y="0" type="line"/>
      <point x="530" y="0" type="line" smooth="yes"/>
      <point x="686" y="0"/>
      <point x="748" y="81"/>
      <point x="748" y="183" type="curve" smooth="yes"/>
      <point x="748" y="273"/>
      <point x="698" y="349"/>
      <point x="576" y="362" type="curve"/>
      <point x="576" y="348" type="line"/>
      <point x="668" y="368"/>
      <point x="708" y="439"/>
      <point x="708" y="517" type="curve" smooth="yes"/>
      <point x="708" y="618"/>
      <point x="656" y="700"/>
      <point x="495" y="700" type="curve" smooth="yes"/>
      <point x="110" y="700" type="line"/>
      <point x="110" y="664" type="line"/>
      <point x="505" y="664" type="line" smooth="yes"/>
      <point x="624" y="664"/>
      <point x="669" y="603"/>
      <point x="669" y="517" type="curve" smooth="yes"/>
      <point x="669" y="431"/>
      <point x="617" y="368"/>
      <point x="505" y="368" type="curve" smooth="yes"/>
      <point x="110" y="368" type="line"/>
    </contour>
  </outline>
</glyph>
<glyph name="C" format="2">
  <advance width="901"/>
  <unicode hex="0043"/>
  <outline>
    <contour>
      <point x="796" y="270" type="line"/>
      <point x="770" y="94"/>
      <point x="648" y="26"/>
      <point x="468" y="26" type="curve" smooth="yes"/>
      <point x="438" y="26" type="line" smooth="yes"/>
      <point x="235" y="26"/>
      <point x="105" y="114"/>
      <point x="105" y="352" type="curve" smooth="yes"/>
      <point x="105" y="589"/>
      <point x="235" y="674"/>
      <point x="438" y="674" type="curve" smooth="yes"/>
      <point x="468" y="674" type="line" smooth="yes"/>
      <point x="646" y="674"/>
      <point x="768" y="610"/>
      <point x="796" y="436" type="curve"/>
      <point x="836" y="441" type="line"/>
      <point x="805" y="630"/>
      <point x="669" y="710"/>
      <point x="468" y="710" type="curve" smooth="yes"/>
      <point x="438" y="710" type="line" smooth="yes"/>
      <point x="208" y="710"/>
      <point x="65" y="605"/>
      <point x="65" y="352" type="curve" smooth="yes"/>
      <point x="65" y="98"/>
      <point x="208" y="-10"/>
      <point x="438" y="-10" type="curve" smooth="yes"/>
      <point x="468" y="-10" type="line" smooth="yes"/>
      <point x="670" y="-10"/>
      <point x="806" y="73"/>
      <point x="836" y="266" type="curve"/>
    </contour>
  </outline>
</glyph>
<glyph name="D" format="2">
  <advance width="827"/>
  <unicode hex="0044"/>
  <outline>
    <contour>
      <point x="90" y="0" type="line"/>
      <point x="130" y="0" type="line"/>
      <point x="130" y="700" type="line"/>
      <point x="90" y="700" type="line"/>
    </contour>
    <contour>
      <point x="113" y="664" type="line"/>
      <point x="368" y="664" type="line" smooth="yes"/>
      <point x="582" y="664"/>
      <point x="722" y="589"/>
      <point x="722" y="352" type="curve" smooth="yes"/>
      <point x="722" y="114"/>
      <point x="582" y="36"/>
      <point x="368" y="36" type="curve" smooth="yes"/>
      <point x="113" y="36" type="line"/>
      <point x="113" y="0" type="line"/>
      <point x="368" y="0" type="line" smooth="yes"/>
      <point x="606" y="0"/>
      <point x="762" y="98"/>
      <point x="762" y="352" type="curve" smooth="yes"/>
      <point x="762" y="605"/>
      <point x="606" y="700"/>
      <point x="368" y="700" type="curve" smooth="yes"/>
      <point x="113" y="700" type="line"/>
    </contour>
  </outline>
</glyph>
<glyph name="E" format="2">
  <advance width="740"/>
  <unicode hex="0045"/>
  <anchor x="370" y="746" name="top"/>
  <outline>
    <contour>
      <point x="90" y="0" type="line"/>
      <point x="130" y="0" type="line"/>
      <point x="130" y="700" type="line"/>
      <point x="90" y="700" type="line"/>
    </contour>
    <contour>
      <point x="110" y="664" type="line"/>
      <point x="660" y="664" type="line"/>
      <point x="660" y="700" type="line"/>
      <point x="110" y="700" type="line"/>
    </contour>
    <contour>
      <point x="110" y="0" type="line"/>
      <point x="660" y="0" type="line"/>
      <point x="660" y="36" type="line"/>
      <point x="110" y="36" type="line"/>
    </contour>
    <contour>
      <point x="110" y="334" type="line"/>
      <point x="590" y="334" type="line"/>
      <point x="590" y="370" type="line"/>
      <point x="110" y="370" type="line"/>
    </contour>
  </outline>
</glyph>
<glyph name="F" format="2">
  <advance width="775"/>
  <unicode hex="0046"/>
  <outline>
    <contour>
      <point x="90" y="0" type="line"/>
      <point x="130" y="0" type="line"/>
      <point x="130" y="700" type="line"/>
      <point x="90" y="700" type="line"/>
    </contour>
    <contour>
      <point x="110" y="664" type="line"/>
      <point x="685" y="664" type="line"/>
      <point x="685" y="700" type="line"/>
      <point x="110" y="700" type="line"/>
    </contour>
    <contour>
      <point x="110" y="304" type="line"/>
      <point x="665" y="304" type="line"/>
      <point x="665" y="340" type="line"/>
      <point x="110" y="340" type="line"/>
    </contour>
  </outline>
</glyph>
<glyph name="G" format="2">
  <advance width="940"/>
  <unicode hex="0047"/>
  <outline>
    <contour>
      <point x="360" y="300" type="line"/>
      <point x="819" y="300" type="line"/>
      <point x="819" y="216" type="line"/>
      <point x="832" y="0" type="line"/>
      <point x="856" y="0" type="line"/>
      <point x="856" y="332" type="line"/>
      <point x="360" y="332" type="line"/>
    </contour>
    <contour>
      <point x="822" y="280" type="line"/>
      <point x="795" y="94"/>
      <point x="673" y="26"/>
      <point x="494" y="26" type="curve" smooth="yes"/>
      <point x="438" y="26" type="line" smooth="yes"/>
      <point x="235" y="26"/>
      <point x="105" y="114"/>
      <point x="105" y="352" type="curve" smooth="yes"/>
      <point x="105" y="589"/>
      <point x="240" y="674"/>
      <point x="442" y="674" type="curve" smooth="yes"/>
      <point x="498" y="674" type="line" smooth="yes"/>
      <point x="676" y="674"/>
      <point x="793" y="610"/>
      <point x="821" y="436" type="curve"/>
      <point x="860" y="441" type="line"/>
      <point x="830" y="630"/>
      <point x="698" y="710"/>
      <point x="498" y="710" type="curve" smooth="yes"/>
      <point x="442" y="710" type="line" smooth="yes"/>
      <point x="213" y="710"/>
      <point x="65" y="605"/>
      <point x="65" y="352" type="curve" smooth="yes"/>
      <point x="65" y="98"/>
      <point x="208" y="-10"/>
      <point x="438" y="-10" type="curve" smooth="yes"/>
      <point x="494" y="-10" type="line" smooth="yes"/>
      <point x="696" y="-10"/>
      <point x="820" y="73"/>
      <point x="844" y="276" type="curve"/>
    </contour>
  </outline>
</glyph>
<glyph name="H" format="2">
  <advance width="800"/>
  <unicode hex="0048"/>
  <outline>
    <contour>
      <point x="90" y="0" type="line"/>
      <point x="130" y="0" type="line"/>
      <point x="130" y="700" type="line"/>
      <point x="90" y="700" type="line"/>
    </contour>
    <contour>
      <point x="112" y="334" type="line"/>
      <point x="692" y="334" type="line"/>
      <point x="692" y="370" type="line"/>
      <point x="112" y="370" type="line"/>
    </contour>
    <contour>
      <point x="670" y="0" type="line"/>
      <point x="710" y="0" type="line"/>
      <point x="710" y="700" type="line"/>
      <point x="670" y="700" type="line"/>
    </contour>
  </outline>
</glyph>
<glyph name="I" format="2">
  <advance width="625"/>
  <unicode hex="0049"/>
  <outline>
    <contour>
      <point x="295" y="0" type="line"/>
      <point x="335" y="0" type="line"/>
      <point x="335" y="700" type="line"/>
      <point x="295" y="700" type="line"/>
    </contour>
    <contour>
      <point x="90" y="664" type="line"/>
      <point x="535" y="664" type="line"/>
      <point x="535" y="700" type="line"/>
      <point x="90" y="700" type="line"/>
    </contour>
    <contour>
      <point x="90" y="0" type="line"/>
      <point x="535" y="0" type="line"/>
      <point x="535" y="36" type="line"/>
      <point x="90" y="36" type="line"/>
    </contour>
  </outline>
</glyph>
<glyph name="J" format="2">
  <advance width="630"/>
  <unicode hex="004A"/>
  <outline>
    <contour>
      <point x="204" y="-10" type="curve" smooth="yes"/>
      <point x="410" y="-10"/>
      <point x="540" y="78"/>
      <point x="540" y="287" type="curve" smooth="yes"/>
      <point x="540" y="700" type="line"/>
      <point x="500" y="700" type="line"/>
      <point x="500" y="287" type="line" smooth="yes"/>
      <point x="500" y="96"/>
      <point x="386" y="26"/>
      <point x="204" y="26" type="curve" smooth="yes"/>
      <point x="166" y="26"/>
      <point x="132" y="30"/>
      <point x="102" y="37" type="curve"/>
      <point x="90" y="1" type="line"/>
      <point x="124" y="-6"/>
      <point x="162" y="-10"/>
    </contour>
  </outline>
</glyph>
<glyph name="K" format="2">
  <advance width="723"/>
  <unicode hex="004B"/>
  <outline>
    <contour>
      <point x="90" y="0" type="line"/>
      <point x="130" y="0" type="line"/>
      <point x="130" y="700" type="line"/>
      <point x="90" y="700" type="line"/>
    </contour>
    <contour>
      <point x="104" y="314" type="line"/>
      <point x="185" y="314" type="line"/>
      <point x="606" y="0" type="line"/>
      <point x="672" y="0" type="line"/>
      <point x="204" y="348" type="line"/>
      <point x="197" y="349" type="line"/>
      <point x="104" y="349" type="line"/>
    </contour>
    <contour>
      <point x="164" y="333" type="line"/>
      <point x="198" y="320" type="line"/>
      <point x="669" y="700" type="line"/>
      <point x="613" y="700" type="line"/>
    </contour>
  </outline>
</glyph>
<glyph name="L" format="2">
  <advance width="670"/>
  <unicode hex="004C"/>
  <outline>
    <contour>
      <point x="90" y="0" type="line"/>
      <point x="130" y="0" type="line"/>
      <point x="130" y="700" type="line"/>
      <point x="90" y="700" type="line"/>
    </contour>
    <contour>
      <point x="110" y="0" type="line"/>
      <point x="635" y="0" type="line"/>
      <point x="635" y="36" type="line"/>
      <point x="110" y="36" type="line"/>
    </contour>
  </outline>
</glyph>
<glyph name="M" format="2">
  <advance width="882"/>
  <unicode hex="004D"/>
  <outline>
    <contour>
      <point x="90" y="0" type="line"/>
      <point x="130" y="0" type="line"/>
      <point x="130" y="700" type="line"/>
      <point x="90" y="700" type="line"/>
    </contour>
    <contour>
      <point x="792" y="0" type="line"/>
      <point x="792" y="700" type="line"/>
      <point x="752" y="700" type="line"/>
      <point x="752" y="0" type="line"/>
    </contour>
    <contour>
      <point x="772" y="658" type="line"/>
      <point x="752" y="700" type="line"/>
      <point x="423" y="302" type="line"/>
      <point x="459" y="302" type="line"/>
      <point x="130" y="700" type="line"/>
      <point x="110" y="658" type="line"/>
      <point x="427" y="270" type="line"/>
      <point x="456" y="270" type="line"/>
    </contour>
  </outline>
</glyph>
<glyph name="N" format="2">
  <advance width="820"/>
  <unicode hex="004E"/>
  <outline>
    <contour>
      <point x="90" y="0" type="line"/>
      <point x="128" y="0" type="line"/>
      <point x="128" y="700" type="line"/>
      <point x="90" y="700" type="line"/>
    </contour>
    <contour>
      <point x="110" y="655" type="line"/>
      <point x="692" y="0" type="line"/>
      <point x="712" y="46" type="line"/>
      <point x="128" y="700" type="line"/>
    </contour>
    <contour>
      <point x="692" y="0" type="line"/>
      <point x="730" y="0" type="line"/>
      <point x="730" y="700" type="line"/>
      <point x="692" y="700" type="line"/>
    </contour>
  </outline>
</glyph>
<glyph name="O" format="2">
  <advance width="912"/>
  <unicode hex="004F"/>
  <outline>
    <contour>
      <point x="438" y="-10" type="curve" smooth="yes"/>
      <point x="474" y="-10" type="line" smooth="yes"/>
      <point x="702" y="-10"/>
      <point x="847" y="98"/>
      <point x="847" y="352" type="curve" smooth="yes"/>
      <point x="847" y="605"/>
      <point x="702" y="710"/>
      <point x="474" y="710" type="curve" smooth="yes"/>
      <point x="438" y="710" type="line" smooth="yes"/>
      <point x="208" y="710"/>
      <point x="65" y="605"/>
      <point x="65" y="352" type="curve" smooth="yes"/>
      <point x="65" y="98"/>
      <point x="208" y="-10"/>
    </contour>
    <contour>
      <point x="438" y="26" type="line" smooth="yes"/>
      <point x="235" y="26"/>
      <point x="105" y="114"/>
      <point x="105" y="352" type="curve" smooth="yes"/>
      <point x="105" y="589"/>
      <point x="235" y="674"/>
      <point x="438" y="674" type="curve" smooth="yes"/>
      <point x="474" y="674" type="line" smooth="yes"/>
      <point x="678" y="674"/>
      <point x="807" y="589"/>
      <point x="807" y="352" type="curve" smooth="yes"/>
      <point x="807" y="114"/>
      <point x="678" y="26"/>
      <point x="474" y="26" type="curve" smooth="yes"/>
    </contour>
  </outline>
</glyph>
<glyph name="P" format="2">
  <advance width="747"/>
  <unicode hex="0050"/>
  <outline>
    <contour>
      <point x="90" y="0" type="line"/>
      <point x="130" y="0" type="line"/>
      <point x="130" y="700" type="line"/>
      <point x="90" y="700" type="line"/>
    </contour>
    <contour>
      <point x="110" y="660" type="line"/>
      <point x="390" y="660" type="line" smooth="yes"/>
      <point x="602" y="660"/>
      <point x="673" y="570"/>
      <point x="673" y="432" type="curve" smooth="yes"/>
      <point x="673" y="294"/>
      <point x="602" y="205"/>
      <point x="390" y="205" type="curve" smooth="yes"/>
      <point x="110" y="205" type="line"/>
      <point x="110" y="165" type="line"/>
      <point x="380" y="165" type="line" smooth="yes"/>
      <point x="648" y="165"/>
      <point x="712" y="286"/>
      <point x="712" y="432" type="curve" smooth="yes"/>
      <point x="712" y="580"/>
      <point x="648" y="700"/>
      <point x="380" y="700" type="curve" smooth="yes"/>
      <point x="110" y="700" type="line"/>
    </contour>
  </outline>
</glyph>
<glyph name="Q" format="2">
  <advance width="912"/>
  <unicode hex="0051"/>
  <outline>
    <contour>
      <point x="519" y="-130" type="line"/>
      <point x="563" y="-130" type="line"/>
      <point x="464" y="13" type="line"/>
      <point x="432" y="-5" type="line"/>
    </contour>
    <component base="O"/>
  </outline>
</glyph>
<glyph name="R" format="2">
  <advance width="782"/>
  <unicode hex="0052"/>
  <outline>
    <contour>
      <point x="655" y="0" type="line"/>
      <point x="711" y="0" type="line"/>
      <point x="596" y="115" type="line" smooth="yes"/>
      <point x="536" y="170"/>
      <point x="506" y="191"/>
      <point x="476" y="190" type="curve"/>
      <point x="458" y="190" type="line"/>
    </contour>
    <contour>
      <point x="90" y="0" type="line"/>
      <point x="130" y="0" type="line"/>
      <point x="130" y="700" type="line"/>
      <point x="90" y="700" type="line"/>
    </contour>
    <contour>
      <point x="110" y="660" type="line"/>
      <point x="395" y="660" type="line" smooth="yes"/>
      <point x="602" y="660"/>
      <point x="671" y="570"/>
      <point x="671" y="432" type="curve" smooth="yes"/>
      <point x="671" y="294"/>
      <point x="602" y="205"/>
      <point x="395" y="205" type="curve" smooth="yes"/>
      <point x="110" y="205" type="line"/>
      <point x="110" y="165" type="line"/>
      <point x="380" y="165" type="line" smooth="yes"/>
      <point x="648" y="165"/>
      <point x="712" y="286"/>
      <point x="712" y="432" type="curve" smooth="yes"/>
      <point x="712" y="580"/>
      <point x="648" y="700"/>
      <point x="380" y="700" type="curve" smooth="yes"/>
      <point x="110" y="700" type="line"/>
    </contour>
  </outline>
</glyph>
<glyph name="S" format="2">
  <advance width="789"/>
  <unicode hex="0053"/>
  <outline>
    <contour>
      <point x="712" y="174" type="curve" smooth="yes"/>
      <point x="712" y="278"/>
      <point x="647" y="328"/>
      <point x="459" y="365" type="curve" smooth="yes"/>
      <point x="347" y="388" type="line" smooth="yes"/>
      <point x="212" y="416"/>
      <point x="132" y="453"/>
      <point x="132" y="538" type="curve" smooth="yes"/>
      <point x="132" y="617"/>
      <point x="210" y="672"/>
      <point x="386" y="672" type="curve" smooth="yes"/>
      <point x="405" y="672" type="line" smooth="yes"/>
      <point x="534" y="672"/>
      <point x="622" y="646"/>
      <point x="694" y="608" type="curve"/>
      <point x="713" y="642" type="line"/>
      <point x="638" y="681"/>
      <point x="540" y="710"/>
      <point x="408" y="710" type="curve" smooth="yes"/>
      <point x="391" y="710" type="line" smooth="yes"/>
      <point x="188" y="710"/>
      <point x="92" y="640"/>
      <point x="93" y="531" type="curve" smooth="yes"/>
      <point x="94" y="432"/>
      <point x="160" y="379"/>
      <point x="342" y="342" type="curve" smooth="yes"/>
      <point x="454" y="318" type="line" smooth="yes"/>
      <point x="605" y="286"/>
      <point x="674" y="258"/>
      <point x="674" y="170" type="curve" smooth="yes"/>
      <point x="674" y="84"/>
      <point x="590" y="28"/>
      <point x="385" y="28" type="curve" smooth="yes"/>
      <point x="366" y="28" type="line" smooth="yes"/>
      <point x="251" y="28"/>
      <point x="159" y="54"/>
      <point x="84" y="94" type="curve"/>
      <point x="68" y="60" type="line"/>
      <point x="145" y="20"/>
      <point x="245" y="-9"/>
      <point x="362" y="-9" type="curve" smooth="yes"/>
      <point x="380" y="-9" type="line" smooth="yes"/>
      <point x="612" y="-9"/>
      <point x="712" y="63"/>
    </contour>
  </outline>
</glyph>
<glyph name="T" format="2">
  <advance width="790"/>
  <unicode hex="0054"/>
  <outline>
    <contour>
      <point x="375" y="0" type="line"/>
      <point x="415" y="0" type="line"/>
      <point x="415" y="700" type="line"/>
      <point x="375" y="700" type="line"/>
    </contour>
    <contour>
      <point x="35" y="664" type="line"/>
      <point x="755" y="664" type="line"/>
      <point x="755" y="700" type="line"/>
      <point x="35" y="700" type="line"/>
    </contour>
  </outline>
</glyph>
<glyph name="U" format="2">
  <advance width="822"/>
  <unicode hex="0055"/>
  <outline>
    <contour>
      <point x="411" y="-10" type="curve" smooth="yes"/>
      <point x="608" y="-10"/>
      <point x="732" y="73"/>
      <point x="732" y="267" type="curve" smooth="yes"/>
      <point x="732" y="700" type="line"/>
      <point x="692" y="700" type="line"/>
      <point x="692" y="267" type="line" smooth="yes"/>
      <point x="692" y="92"/>
      <point x="584" y="26"/>
      <point x="411" y="26" type="curve" smooth="yes"/>
      <point x="239" y="26"/>
      <point x="130" y="92"/>
      <point x="130" y="267" type="curve" smooth="yes"/>
      <point x="130" y="700" type="line"/>
      <point x="90" y="700" type="line"/>
      <point x="90" y="267" type="line" smooth="yes"/>
      <point x="90" y="73"/>
      <point x="212" y="-10"/>
    </contour>
  </outline>
</glyph>
<glyph name="V" format="2">
  <advance width="785"/>
  <unicode hex="0056"/>
  <outline>
    <contour>
      <point x="754" y="700" type="line"/>
      <point x="710" y="700" type="line"/>
      <point x="395" y="0" type="line"/>
      <point x="436" y="0" type="line"/>
    </contour>
    <contour>
      <point x="80" y="700" type="line"/>
      <point x="30" y="700" type="line"/>
      <point x="352" y="0" type="line"/>
      <point x="397" y="0" type="line"/>
    </contour>
    <contour>
      <point x="426" y="38" type="line"/>
      <point x="362" y="38" type="line"/>
      <point x="362" y="0" type="line"/>
      <point x="426" y="0" type="line"/>
    </contour>
  </outline>
</glyph>
<glyph name="W" format="2">
  <advance width="944"/>
  <unicode hex="0057"/>
  <outline>
    <contour>
      <point x="912" y="700" type="line"/>
      <point x="870" y="700" type="line"/>
      <point x="678" y="62" type="line"/>
      <point x="688" y="62" type="line"/>
      <point x="488" y="700" type="line"/>
      <point x="456" y="700" type="line"/>
      <point x="264" y="57" type="line"/>
      <point x="276" y="57" type="line"/>
      <point x="75" y="700" type="line"/>
      <point x="31" y="700" type="line"/>
      <point x="251" y="0" type="line"/>
      <point x="282" y="0" type="line"/>
      <point x="472" y="648" type="line"/>
      <point x="460" y="647" type="line"/>
      <point x="666" y="0" type="line"/>
      <point x="696" y="0" type="line"/>
    </contour>
  </outline>
</glyph>
<glyph name="X" format="2">
  <advance width="710"/>
  <unicode hex="0058"/>
  <outline>
    <contour>
      <point x="628" y="0" type="line"/>
      <point x="681" y="0" type="line"/>
      <point x="366" y="366" type="line"/>
      <point x="91" y="700" type="line"/>
      <point x="38" y="700" type="line"/>
      <point x="341" y="344" type="line"/>
    </contour>
    <contour>
      <point x="31" y="-1" type="line"/>
      <point x="75" y="0" type="line"/>
      <point x="356" y="342" type="line"/>
      <point x="369" y="342" type="line"/>
      <point x="670" y="700" type="line"/>
      <point x="625" y="700" type="line"/>
      <point x="352" y="366" type="line"/>
      <point x="338" y="364" type="line"/>
    </contour>
  </outline>
</glyph>
<glyph name="Y" format="2">
  <advance width="705"/>
  <unicode hex="0059"/>
  <outline>
    <contour>
      <point x="680" y="700" type="line"/>
      <point x="634" y="700" type="line"/>
      <point x="350" y="205" type="line"/>
      <point x="368" y="190" type="line"/>
    </contour>
    <contour>
      <point x="74" y="700" type="line"/>
      <point x="25" y="700" type="line"/>
      <point x="336" y="190" type="line"/>
      <point x="366" y="205" type="line"/>
    </contour>
    <contour>
      <point x="372" y="232" type="line"/>
      <point x="332" y="232" type="line"/>
      <point x="332" y="0" type="line"/>
      <point x="372" y="0" type="line"/>
    </contour>
  </outline>
</glyph>
<glyph name="Z" format="2">
  <advance width="820"/>
  <unicode hex="005A"/>
  <outline>
    <contour>
      <point x="90" y="36" type="line"/>
      <point x="125" y="21" type="line"/>
      <point x="730" y="664" type="line"/>
      <point x="695" y="679" type="line"/>
    </contour>
    <contour>
      <point x="90" y="664" type="line"/>
      <point x="730" y="664" type="line"/>
      <point x="730" y="700" type="line"/>
      <point x="90" y="700" type="line"/>
    </contour>
    <contour>
      <point x="90" y="0" type="line"/>
      <point x="730" y="0" type="line"/>
      <point x="730" y="36" type="line"/>
      <point x="90" y="36" type="line"/>
    </contour>
  </outline>
</glyph>
